<svg xmlns="http://www.w3.org/2000/svg" xmlns:xlink="http://www.w3.org/1999/xlink" width="500" zoomAndPan="magnify" viewBox="0 0 375 225" height="300" preserveAspectRatio="xMidYMid meet" version="1.0"><defs><filter x="0%" y="0%" width="100%" height="100%" id="id1"><feColorMatrix values="0 0 0 0 1 0 0 0 0 1 0 0 0 0 1 0 0 0 1 0" color-interpolation-filters="sRGB"/></filter><g/><mask id="id2"><g filter="url(#id1)"><rect x="-37.5" width="450" fill="#000000" y="-22.5" height="270" fill-opacity="0.7882"/></g></mask><clipPath id="id3"><rect x="0" width="178" y="0" height="66"/></clipPath><mask id="id4"><g filter="url(#id1)"><rect x="-37.5" width="450" fill="#000000" y="-22.5" height="270" fill-opacity="0.6863"/></g></mask><clipPath id="id5"><path d="M 0.320312 0.238281 L 282.800781 0.238281 L 282.800781 117 L 0.320312 117 Z M 0.320312 0.238281 " clip-rule="nonzero"/></clipPath><clipPath id="id6"><rect x="0" width="283" y="0" height="118"/></clipPath><clipPath id="id7"><path d="M 157.957031 152 L 217.207031 152 L 217.207031 165 L 157.957031 165 Z M 157.957031 152 " clip-rule="nonzero"/></clipPath></defs><rect x="-37.5" width="450" fill="#ffffff" y="-22.5" height="270" fill-opacity="1"/><rect x="-37.5" width="450" fill="#03738c" y="-22.5" height="270" fill-opacity="1"/><rect x="-37.5" width="450" fill="#ffffff" y="-22.5" height="270" fill-opacity="1"/><rect x="-37.5" width="450" fill="#03738c" y="-22.5" height="270" fill-opacity="1"/><g mask="url(#id2)"><g transform="matrix(1, 0, 0, 1, 96, 73)"><g clip-path="url(#id3)"><g fill="#400d01" fill-opacity="1"><g transform="translate(1.253575, 51.761949)"><g><path d="M 32.34375 -17.25 C 32.34375 -11.675781 30.753906 -7.40625 27.578125 -4.4375 C 24.410156 -1.476562 19.832031 0 13.84375 0 L 4.265625 0 L 4.265625 -33.859375 L 14.890625 -33.859375 C 20.410156 -33.859375 24.695312 -32.394531 27.75 -29.46875 C 30.8125 -26.550781 32.34375 -22.476562 32.34375 -17.25 Z M 24.890625 -17.0625 C 24.890625 -24.332031 21.679688 -27.96875 15.265625 -27.96875 L 11.4375 -27.96875 L 11.4375 -5.921875 L 14.515625 -5.921875 C 21.429688 -5.921875 24.890625 -9.632812 24.890625 -17.0625 Z M 24.890625 -17.0625 "/></g></g><g transform="translate(36.352753, 51.761949)"><g><path d="M 24.984375 0 L 22.53125 -8.0625 L 10.1875 -8.0625 L 7.734375 0 L 0 0 L 11.953125 -33.984375 L 20.71875 -33.984375 L 32.71875 0 Z M 20.8125 -14.078125 C 18.539062 -21.378906 17.265625 -25.507812 16.984375 -26.46875 C 16.703125 -27.425781 16.5 -28.179688 16.375 -28.734375 C 15.863281 -26.753906 14.40625 -21.867188 12 -14.078125 Z M 8.453125 -40.53125 C 8.453125 -41.53125 8.742188 -42.300781 9.328125 -42.84375 C 9.910156 -43.382812 10.691406 -43.65625 11.671875 -43.65625 C 12.691406 -43.65625 13.488281 -43.367188 14.0625 -42.796875 C 14.644531 -42.234375 14.9375 -41.476562 14.9375 -40.53125 C 14.9375 -39.601562 14.644531 -38.859375 14.0625 -38.296875 C 13.476562 -37.734375 12.679688 -37.453125 11.671875 -37.453125 C 10.691406 -37.453125 9.910156 -37.722656 9.328125 -38.265625 C 8.742188 -38.804688 8.453125 -39.5625 8.453125 -40.53125 Z M 17.796875 -40.53125 C 17.796875 -41.613281 18.109375 -42.40625 18.734375 -42.90625 C 19.359375 -43.40625 20.132812 -43.65625 21.0625 -43.65625 C 22.0625 -43.65625 22.859375 -43.375 23.453125 -42.8125 C 24.046875 -42.257812 24.34375 -41.5 24.34375 -40.53125 C 24.34375 -39.59375 24.039062 -38.84375 23.4375 -38.28125 C 22.832031 -37.726562 22.039062 -37.453125 21.0625 -37.453125 C 20.132812 -37.453125 19.359375 -37.703125 18.734375 -38.203125 C 18.109375 -38.703125 17.796875 -39.476562 17.796875 -40.53125 Z M 17.796875 -40.53125 "/></g></g><g transform="translate(69.067223, 51.761949)"><g><path d="M 26.328125 0 L 1.140625 0 L 1.140625 -4.65625 L 17.359375 -27.921875 L 1.578125 -27.921875 L 1.578125 -33.859375 L 25.890625 -33.859375 L 25.890625 -29.21875 L 9.671875 -5.921875 L 26.328125 -5.921875 Z M 26.328125 0 "/></g></g><g transform="translate(96.526078, 51.761949)"><g><path d="M 24.984375 0 L 22.53125 -8.0625 L 10.1875 -8.0625 L 7.734375 0 L 0 0 L 11.953125 -33.984375 L 20.71875 -33.984375 L 32.71875 0 Z M 20.8125 -14.078125 C 18.539062 -21.378906 17.265625 -25.507812 16.984375 -26.46875 C 16.703125 -27.425781 16.5 -28.179688 16.375 -28.734375 C 15.863281 -26.753906 14.40625 -21.867188 12 -14.078125 Z M 20.8125 -14.078125 "/></g></g><g transform="translate(129.240549, 51.761949)"><g><path d="M 4.265625 -33.859375 L 14.796875 -33.859375 C 19.597656 -33.859375 23.082031 -33.171875 25.25 -31.796875 C 27.414062 -30.429688 28.5 -28.257812 28.5 -25.28125 C 28.5 -23.257812 28.023438 -21.597656 27.078125 -20.296875 C 26.128906 -19.003906 24.867188 -18.226562 23.296875 -17.96875 L 23.296875 -17.734375 C 25.441406 -17.253906 26.988281 -16.359375 27.9375 -15.046875 C 28.882812 -13.734375 29.359375 -11.988281 29.359375 -9.8125 C 29.359375 -6.726562 28.242188 -4.320312 26.015625 -2.59375 C 23.785156 -0.863281 20.753906 0 16.921875 0 L 4.265625 0 Z M 11.4375 -20.453125 L 15.609375 -20.453125 C 17.554688 -20.453125 18.960938 -20.75 19.828125 -21.34375 C 20.703125 -21.945312 21.140625 -22.945312 21.140625 -24.34375 C 21.140625 -25.632812 20.664062 -26.5625 19.71875 -27.125 C 18.769531 -27.6875 17.269531 -27.96875 15.21875 -27.96875 L 11.4375 -27.96875 Z M 11.4375 -14.75 L 11.4375 -5.921875 L 16.109375 -5.921875 C 18.085938 -5.921875 19.546875 -6.300781 20.484375 -7.0625 C 21.429688 -7.820312 21.90625 -8.976562 21.90625 -10.53125 C 21.90625 -13.34375 19.898438 -14.75 15.890625 -14.75 Z M 11.4375 -14.75 "/></g></g><g transform="translate(161.098377, 51.761949)"><g><path d="M 4.265625 0 L 4.265625 -33.859375 L 11.4375 -33.859375 L 11.4375 0 Z M 4.265625 0 "/></g></g></g></g></g></g><g fill="#f2f2f2" fill-opacity="1"><g transform="translate(102.209775, 124.792379)"><g><path d="M 32.34375 -17.25 C 32.34375 -11.675781 30.753906 -7.40625 27.578125 -4.4375 C 24.410156 -1.476562 19.832031 0 13.84375 0 L 4.265625 0 L 4.265625 -33.859375 L 14.890625 -33.859375 C 20.410156 -33.859375 24.695312 -32.394531 27.75 -29.46875 C 30.8125 -26.550781 32.34375 -22.476562 32.34375 -17.25 Z M 24.890625 -17.0625 C 24.890625 -24.332031 21.679688 -27.96875 15.265625 -27.96875 L 11.4375 -27.96875 L 11.4375 -5.921875 L 14.515625 -5.921875 C 21.429688 -5.921875 24.890625 -9.632812 24.890625 -17.0625 Z M 24.890625 -17.0625 "/></g></g></g><g fill="#f2f2f2" fill-opacity="1"><g transform="translate(137.306713, 124.792379)"><g><path d="M 24.984375 0 L 22.53125 -8.0625 L 10.1875 -8.0625 L 7.734375 0 L 0 0 L 11.953125 -33.984375 L 20.71875 -33.984375 L 32.71875 0 Z M 20.8125 -14.078125 C 18.539062 -21.378906 17.265625 -25.507812 16.984375 -26.46875 C 16.703125 -27.425781 16.5 -28.179688 16.375 -28.734375 C 15.863281 -26.753906 14.40625 -21.867188 12 -14.078125 Z M 8.453125 -40.53125 C 8.453125 -41.53125 8.742188 -42.300781 9.328125 -42.84375 C 9.910156 -43.382812 10.691406 -43.65625 11.671875 -43.65625 C 12.691406 -43.65625 13.488281 -43.367188 14.0625 -42.796875 C 14.644531 -42.234375 14.9375 -41.476562 14.9375 -40.53125 C 14.9375 -39.601562 14.644531 -38.859375 14.0625 -38.296875 C 13.476562 -37.734375 12.679688 -37.453125 11.671875 -37.453125 C 10.691406 -37.453125 9.910156 -37.722656 9.328125 -38.265625 C 8.742188 -38.804688 8.453125 -39.5625 8.453125 -40.53125 Z M 17.796875 -40.53125 C 17.796875 -41.613281 18.109375 -42.40625 18.734375 -42.90625 C 19.359375 -43.40625 20.132812 -43.65625 21.0625 -43.65625 C 22.0625 -43.65625 22.859375 -43.375 23.453125 -42.8125 C 24.046875 -42.257812 24.34375 -41.5 24.34375 -40.53125 C 24.34375 -39.59375 24.039062 -38.84375 23.4375 -38.28125 C 22.832031 -37.726562 22.039062 -37.453125 21.0625 -37.453125 C 20.132812 -37.453125 19.359375 -37.703125 18.734375 -38.203125 C 18.109375 -38.703125 17.796875 -39.476562 17.796875 -40.53125 Z M 17.796875 -40.53125 "/></g></g></g><g fill="#f2f2f2" fill-opacity="1"><g transform="translate(170.019096, 124.792379)"><g><path d="M 26.328125 0 L 1.140625 0 L 1.140625 -4.65625 L 17.359375 -27.921875 L 1.578125 -27.921875 L 1.578125 -33.859375 L 25.890625 -33.859375 L 25.890625 -29.21875 L 9.671875 -5.921875 L 26.328125 -5.921875 Z M 26.328125 0 "/></g></g></g><g fill="#f2f2f2" fill-opacity="1"><g transform="translate(197.476203, 124.792379)"><g><path d="M 24.984375 0 L 22.53125 -8.0625 L 10.1875 -8.0625 L 7.734375 0 L 0 0 L 11.953125 -33.984375 L 20.71875 -33.984375 L 32.71875 0 Z M 20.8125 -14.078125 C 18.539062 -21.378906 17.265625 -25.507812 16.984375 -26.46875 C 16.703125 -27.425781 16.5 -28.179688 16.375 -28.734375 C 15.863281 -26.753906 14.40625 -21.867188 12 -14.078125 Z M 20.8125 -14.078125 "/></g></g></g><g fill="#f2f2f2" fill-opacity="1"><g transform="translate(230.188582, 124.792379)"><g><path d="M 4.265625 -33.859375 L 14.796875 -33.859375 C 19.597656 -33.859375 23.082031 -33.171875 25.25 -31.796875 C 27.414062 -30.429688 28.5 -28.257812 28.5 -25.28125 C 28.5 -23.257812 28.023438 -21.597656 27.078125 -20.296875 C 26.128906 -19.003906 24.867188 -18.226562 23.296875 -17.96875 L 23.296875 -17.734375 C 25.441406 -17.253906 26.988281 -16.359375 27.9375 -15.046875 C 28.882812 -13.734375 29.359375 -11.988281 29.359375 -9.8125 C 29.359375 -6.726562 28.242188 -4.320312 26.015625 -2.59375 C 23.785156 -0.863281 20.753906 0 16.921875 0 L 4.265625 0 Z M 11.4375 -20.453125 L 15.609375 -20.453125 C 17.554688 -20.453125 18.960938 -20.75 19.828125 -21.34375 C 20.703125 -21.945312 21.140625 -22.945312 21.140625 -24.34375 C 21.140625 -25.632812 20.664062 -26.5625 19.71875 -27.125 C 18.769531 -27.6875 17.269531 -27.96875 15.21875 -27.96875 L 11.4375 -27.96875 Z M 11.4375 -14.75 L 11.4375 -5.921875 L 16.109375 -5.921875 C 18.085938 -5.921875 19.546875 -6.300781 20.484375 -7.0625 C 21.429688 -7.820312 21.90625 -8.976562 21.90625 -10.53125 C 21.90625 -13.34375 19.898438 -14.75 15.890625 -14.75 Z M 11.4375 -14.75 "/></g></g></g><g fill="#f2f2f2" fill-opacity="1"><g transform="translate(262.044378, 124.792379)"><g><path d="M 4.265625 0 L 4.265625 -33.859375 L 11.4375 -33.859375 L 11.4375 0 Z M 4.265625 0 "/></g></g></g><g mask="url(#id4)"><g transform="matrix(1, 0, 0, 1, 46, 48)"><g clip-path="url(#id6)"><g clip-path="url(#id5)"><path fill="#f2f2f2" d="M 0.34375 0.339844 L 0.34375 116.589844 L 282.332031 116.589844 L 282.332031 0.339844 L 0.34375 0.339844 M 276.84375 111.105469 L 5.714844 111.105469 L 5.714844 5.714844 L 276.84375 5.714844 L 276.84375 111.105469 " fill-opacity="1" fill-rule="nonzero"/></g></g></g></g><path fill="#03738c" d="M 150.964844 144.070312 L 223.714844 144.070312 L 223.714844 176.316406 L 150.964844 176.316406 L 150.964844 144.070312 " fill-opacity="1" fill-rule="nonzero"/><g clip-path="url(#id7)"><path fill="#d1e9ea" d="M 157.957031 159.167969 C 157.957031 159.167969 167.773438 149.109375 183.511719 154.554688 C 199.25 160 208.785156 161.660156 217.207031 156.03125 C 217.207031 156.03125 208.691406 169.414062 190.082031 163.046875 C 171.476562 156.675781 169.160156 155.664062 157.957031 159.167969 Z M 157.957031 159.167969 " fill-opacity="1" fill-rule="nonzero"/></g><path fill="#d1e9ea" d="M 162.308594 161.109375 C 162.308594 161.109375 167.679688 158.0625 180.546875 162.675781 C 193.417969 167.292969 196.933594 168.953125 204.527344 167.015625 C 204.527344 167.015625 198.972656 172.832031 187.492188 169.046875 C 176.011719 165.261719 174.992188 160.921875 162.308594 161.109375 Z M 162.308594 161.109375 " fill-opacity="1" fill-rule="nonzero"/></svg>