<svg xmlns="http://www.w3.org/2000/svg" xmlns:xlink="http://www.w3.org/1999/xlink" width="500" zoomAndPan="magnify" viewBox="0 0 375 374.999991" height="500" preserveAspectRatio="xMidYMid meet" version="1.0"><defs><filter x="0%" y="0%" width="100%" height="100%" id="id1"><feColorMatrix values="0 0 0 0 1 0 0 0 0 1 0 0 0 0 1 0 0 0 1 0" color-interpolation-filters="sRGB"/></filter><g/><mask id="id2"><g filter="url(#id1)"><rect x="-37.5" width="450" fill="#000000" y="-37.499999" height="449.999989" fill-opacity="0.7882"/></g></mask><clipPath id="id3"><rect x="0" width="180" y="0" height="67"/></clipPath><mask id="id4"><g filter="url(#id1)"><rect x="-37.5" width="450" fill="#000000" y="-37.499999" height="449.999989" fill-opacity="0.6863"/></g></mask><clipPath id="id5"><path d="M 0.199219 0.921875 L 288.921875 0.921875 L 288.921875 119.960938 L 0.199219 119.960938 Z M 0.199219 0.921875 " clip-rule="nonzero"/></clipPath><clipPath id="id6"><rect x="0" width="289" y="0" height="120"/></clipPath><clipPath id="id7"><path d="M 157.335938 228 L 217.335938 228 L 217.335938 242 L 157.335938 242 Z M 157.335938 228 " clip-rule="nonzero"/></clipPath></defs><rect x="-37.5" width="450" fill="#ffffff" y="-37.499999" height="449.999989" fill-opacity="1"/><rect x="-37.5" width="450" fill="#03738c" y="-37.499999" height="449.999989" fill-opacity="1"/><rect x="-37.5" width="450" fill="#ffffff" y="-37.499999" height="449.999989" fill-opacity="1"/><rect x="-37.5" width="450" fill="#03738c" y="-37.499999" height="449.999989" fill-opacity="1"/><g mask="url(#id2)"><g transform="matrix(1, 0, 0, 1, 95, 148)"><g clip-path="url(#id3)"><g fill="#400d01" fill-opacity="1"><g transform="translate(0.348415, 52.020784)"><g><path d="M 33.03125 -17.609375 C 33.03125 -11.921875 31.410156 -7.5625 28.171875 -4.53125 C 24.929688 -1.507812 20.253906 0 14.140625 0 L 4.34375 0 L 4.34375 -34.5625 L 15.203125 -34.5625 C 20.847656 -34.5625 25.226562 -33.070312 28.34375 -30.09375 C 31.46875 -27.113281 33.03125 -22.953125 33.03125 -17.609375 Z M 25.421875 -17.421875 C 25.421875 -24.847656 22.140625 -28.5625 15.578125 -28.5625 L 11.6875 -28.5625 L 11.6875 -6.046875 L 14.828125 -6.046875 C 21.890625 -6.046875 25.421875 -9.835938 25.421875 -17.421875 Z M 25.421875 -17.421875 "/></g></g><g transform="translate(36.188553, 52.020784)"><g><path d="M 25.515625 0 L 23 -8.234375 L 10.40625 -8.234375 L 7.890625 0 L 0 0 L 12.203125 -34.703125 L 21.15625 -34.703125 L 33.40625 0 Z M 21.25 -14.375 C 18.9375 -21.832031 17.632812 -26.046875 17.34375 -27.015625 C 17.050781 -27.992188 16.84375 -28.769531 16.71875 -29.34375 C 16.195312 -27.320312 14.707031 -22.332031 12.25 -14.375 Z M 8.59375 -41.21875 C 8.59375 -42.238281 8.890625 -43.023438 9.484375 -43.578125 C 10.078125 -44.128906 10.878906 -44.40625 11.890625 -44.40625 C 12.921875 -44.40625 13.734375 -44.113281 14.328125 -43.53125 C 14.921875 -42.945312 15.21875 -42.175781 15.21875 -41.21875 C 15.21875 -40.269531 14.914062 -39.507812 14.3125 -38.9375 C 13.71875 -38.363281 12.910156 -38.078125 11.890625 -38.078125 C 10.878906 -38.078125 10.078125 -38.351562 9.484375 -38.90625 C 8.890625 -39.457031 8.59375 -40.226562 8.59375 -41.21875 Z M 18.125 -41.21875 C 18.125 -42.320312 18.441406 -43.128906 19.078125 -43.640625 C 19.722656 -44.148438 20.515625 -44.40625 21.453125 -44.40625 C 22.484375 -44.40625 23.300781 -44.117188 23.90625 -43.546875 C 24.507812 -42.984375 24.8125 -42.207031 24.8125 -41.21875 C 24.8125 -40.257812 24.503906 -39.492188 23.890625 -38.921875 C 23.273438 -38.359375 22.460938 -38.078125 21.453125 -38.078125 C 20.515625 -38.078125 19.722656 -38.332031 19.078125 -38.84375 C 18.441406 -39.351562 18.125 -40.144531 18.125 -41.21875 Z M 18.125 -41.21875 "/></g></g><g transform="translate(69.593642, 52.020784)"><g><path d="M 26.875 0 L 1.15625 0 L 1.15625 -4.75 L 17.734375 -28.515625 L 1.609375 -28.515625 L 1.609375 -34.5625 L 26.4375 -34.5625 L 26.4375 -29.84375 L 9.890625 -6.046875 L 26.875 -6.046875 Z M 26.875 0 "/></g></g><g transform="translate(97.632167, 52.020784)"><g><path d="M 25.515625 0 L 23 -8.234375 L 10.40625 -8.234375 L 7.890625 0 L 0 0 L 12.203125 -34.703125 L 21.15625 -34.703125 L 33.40625 0 Z M 21.25 -14.375 C 18.9375 -21.832031 17.632812 -26.046875 17.34375 -27.015625 C 17.050781 -27.992188 16.84375 -28.769531 16.71875 -29.34375 C 16.195312 -27.320312 14.707031 -22.332031 12.25 -14.375 Z M 21.25 -14.375 "/></g></g><g transform="translate(131.037256, 52.020784)"><g><path d="M 4.34375 -34.5625 L 15.109375 -34.5625 C 20.015625 -34.5625 23.570312 -33.863281 25.78125 -32.46875 C 28 -31.070312 29.109375 -28.851562 29.109375 -25.8125 C 29.109375 -23.75 28.625 -22.054688 27.65625 -20.734375 C 26.6875 -19.410156 25.394531 -18.613281 23.78125 -18.34375 L 23.78125 -18.109375 C 25.976562 -17.617188 27.5625 -16.703125 28.53125 -15.359375 C 29.5 -14.023438 29.984375 -12.25 29.984375 -10.03125 C 29.984375 -6.875 28.84375 -4.410156 26.5625 -2.640625 C 24.28125 -0.878906 21.1875 0 17.28125 0 L 4.34375 0 Z M 11.6875 -20.875 L 15.9375 -20.875 C 17.925781 -20.875 19.363281 -21.179688 20.25 -21.796875 C 21.144531 -22.410156 21.59375 -23.425781 21.59375 -24.84375 C 21.59375 -26.164062 21.101562 -27.113281 20.125 -27.6875 C 19.15625 -28.269531 17.625 -28.5625 15.53125 -28.5625 L 11.6875 -28.5625 Z M 11.6875 -15.0625 L 11.6875 -6.046875 L 16.453125 -6.046875 C 18.472656 -6.046875 19.960938 -6.429688 20.921875 -7.203125 C 21.878906 -7.984375 22.359375 -9.164062 22.359375 -10.75 C 22.359375 -13.625 20.3125 -15.0625 16.21875 -15.0625 Z M 11.6875 -15.0625 "/></g></g><g transform="translate(163.567619, 52.020784)"><g><path d="M 4.34375 0 L 4.34375 -34.5625 L 11.6875 -34.5625 L 11.6875 0 Z M 4.34375 0 "/></g></g></g></g></g></g><g fill="#f2f2f2" fill-opacity="1"><g transform="translate(100.409235, 200.05186)"><g><path d="M 33.03125 -17.609375 C 33.03125 -11.921875 31.410156 -7.5625 28.171875 -4.53125 C 24.929688 -1.507812 20.253906 0 14.140625 0 L 4.34375 0 L 4.34375 -34.5625 L 15.203125 -34.5625 C 20.847656 -34.5625 25.226562 -33.070312 28.34375 -30.09375 C 31.46875 -27.113281 33.03125 -22.953125 33.03125 -17.609375 Z M 25.421875 -17.421875 C 25.421875 -24.847656 22.140625 -28.5625 15.578125 -28.5625 L 11.6875 -28.5625 L 11.6875 -6.046875 L 14.828125 -6.046875 C 21.890625 -6.046875 25.421875 -9.835938 25.421875 -17.421875 Z M 25.421875 -17.421875 "/></g></g></g><g fill="#f2f2f2" fill-opacity="1"><g transform="translate(136.247089, 200.05186)"><g><path d="M 25.515625 0 L 23 -8.234375 L 10.40625 -8.234375 L 7.890625 0 L 0 0 L 12.203125 -34.703125 L 21.15625 -34.703125 L 33.40625 0 Z M 21.25 -14.375 C 18.9375 -21.832031 17.632812 -26.046875 17.34375 -27.015625 C 17.050781 -27.992188 16.84375 -28.769531 16.71875 -29.34375 C 16.195312 -27.320312 14.707031 -22.332031 12.25 -14.375 Z M 8.59375 -41.21875 C 8.59375 -42.238281 8.890625 -43.023438 9.484375 -43.578125 C 10.078125 -44.128906 10.878906 -44.40625 11.890625 -44.40625 C 12.921875 -44.40625 13.734375 -44.113281 14.328125 -43.53125 C 14.921875 -42.945312 15.21875 -42.175781 15.21875 -41.21875 C 15.21875 -40.269531 14.914062 -39.507812 14.3125 -38.9375 C 13.71875 -38.363281 12.910156 -38.078125 11.890625 -38.078125 C 10.878906 -38.078125 10.078125 -38.351562 9.484375 -38.90625 C 8.890625 -39.457031 8.59375 -40.226562 8.59375 -41.21875 Z M 18.125 -41.21875 C 18.125 -42.320312 18.441406 -43.128906 19.078125 -43.640625 C 19.722656 -44.148438 20.515625 -44.40625 21.453125 -44.40625 C 22.484375 -44.40625 23.300781 -44.117188 23.90625 -43.546875 C 24.507812 -42.984375 24.8125 -42.207031 24.8125 -41.21875 C 24.8125 -40.257812 24.503906 -39.492188 23.890625 -38.921875 C 23.273438 -38.359375 22.460938 -38.078125 21.453125 -38.078125 C 20.515625 -38.078125 19.722656 -38.332031 19.078125 -38.84375 C 18.441406 -39.351562 18.125 -40.144531 18.125 -41.21875 Z M 18.125 -41.21875 "/></g></g></g><g fill="#f2f2f2" fill-opacity="1"><g transform="translate(169.650049, 200.05186)"><g><path d="M 26.875 0 L 1.15625 0 L 1.15625 -4.75 L 17.734375 -28.515625 L 1.609375 -28.515625 L 1.609375 -34.5625 L 26.4375 -34.5625 L 26.4375 -29.84375 L 9.890625 -6.046875 L 26.875 -6.046875 Z M 26.875 0 "/></g></g></g><g fill="#f2f2f2" fill-opacity="1"><g transform="translate(197.686792, 200.05186)"><g><path d="M 25.515625 0 L 23 -8.234375 L 10.40625 -8.234375 L 7.890625 0 L 0 0 L 12.203125 -34.703125 L 21.15625 -34.703125 L 33.40625 0 Z M 21.25 -14.375 C 18.9375 -21.832031 17.632812 -26.046875 17.34375 -27.015625 C 17.050781 -27.992188 16.84375 -28.769531 16.71875 -29.34375 C 16.195312 -27.320312 14.707031 -22.332031 12.25 -14.375 Z M 21.25 -14.375 "/></g></g></g><g fill="#f2f2f2" fill-opacity="1"><g transform="translate(231.089748, 200.05186)"><g><path d="M 4.34375 -34.5625 L 15.109375 -34.5625 C 20.015625 -34.5625 23.570312 -33.863281 25.78125 -32.46875 C 28 -31.070312 29.109375 -28.851562 29.109375 -25.8125 C 29.109375 -23.75 28.625 -22.054688 27.65625 -20.734375 C 26.6875 -19.410156 25.394531 -18.613281 23.78125 -18.34375 L 23.78125 -18.109375 C 25.976562 -17.617188 27.5625 -16.703125 28.53125 -15.359375 C 29.5 -14.023438 29.984375 -12.25 29.984375 -10.03125 C 29.984375 -6.875 28.84375 -4.410156 26.5625 -2.640625 C 24.28125 -0.878906 21.1875 0 17.28125 0 L 4.34375 0 Z M 11.6875 -20.875 L 15.9375 -20.875 C 17.925781 -20.875 19.363281 -21.179688 20.25 -21.796875 C 21.144531 -22.410156 21.59375 -23.425781 21.59375 -24.84375 C 21.59375 -26.164062 21.101562 -27.113281 20.125 -27.6875 C 19.15625 -28.269531 17.625 -28.5625 15.53125 -28.5625 L 11.6875 -28.5625 Z M 11.6875 -15.0625 L 11.6875 -6.046875 L 16.453125 -6.046875 C 18.472656 -6.046875 19.960938 -6.429688 20.921875 -7.203125 C 21.878906 -7.984375 22.359375 -9.164062 22.359375 -10.75 C 22.359375 -13.625 20.3125 -15.0625 16.21875 -15.0625 Z M 11.6875 -15.0625 "/></g></g></g><g fill="#f2f2f2" fill-opacity="1"><g transform="translate(263.618037, 200.05186)"><g><path d="M 4.34375 0 L 4.34375 -34.5625 L 11.6875 -34.5625 L 11.6875 0 Z M 4.34375 0 "/></g></g></g><g mask="url(#id4)"><g transform="matrix(1, 0, 0, 1, 43, 121)"><g clip-path="url(#id6)"><g clip-path="url(#id5)"><path fill="#f2f2f2" d="M 0.359375 0.988281 L 0.359375 119.488281 L 288.355469 119.488281 L 288.355469 0.988281 L 0.359375 0.988281 M 282.75 113.894531 L 5.847656 113.894531 L 5.847656 6.464844 L 282.75 6.464844 L 282.75 113.894531 " fill-opacity="1" fill-rule="nonzero"/></g></g></g></g><path fill="#03738c" d="M 150.203125 219.734375 L 224.433594 219.734375 L 224.433594 252.734375 L 150.203125 252.734375 L 150.203125 219.734375 " fill-opacity="1" fill-rule="nonzero"/><g clip-path="url(#id7)"><path fill="#d1e9ea" d="M 157.335938 235.257812 C 157.335938 235.257812 167.273438 224.878906 183.210938 230.496094 C 199.148438 236.113281 208.804688 237.828125 217.335938 232.019531 C 217.335938 232.019531 208.710938 245.828125 189.867188 239.257812 C 171.023438 232.6875 168.679688 231.640625 157.335938 235.257812 Z M 157.335938 235.257812 " fill-opacity="1" fill-rule="nonzero"/></g><path fill="#d1e9ea" d="M 161.742188 237.257812 C 161.742188 237.257812 167.179688 234.117188 180.210938 238.875 C 193.242188 243.636719 196.804688 245.351562 204.492188 243.351562 C 204.492188 243.351562 198.867188 249.347656 187.242188 245.445312 C 175.617188 241.542969 174.585938 237.066406 161.742188 237.257812 Z M 161.742188 237.257812 " fill-opacity="1" fill-rule="nonzero"/></svg>