<svg xmlns="http://www.w3.org/2000/svg" xmlns:xlink="http://www.w3.org/1999/xlink" width="500" zoomAndPan="magnify" viewBox="0 0 375 225" height="300" preserveAspectRatio="xMidYMid meet" version="1.0"><defs><filter x="0%" y="0%" width="100%" height="100%" id="id1"><feColorMatrix values="0 0 0 0 1 0 0 0 0 1 0 0 0 0 1 0 0 0 1 0" color-interpolation-filters="sRGB"/></filter><g/><mask id="id2"><g filter="url(#id1)"><rect x="-37.5" width="450" fill="#000000" y="-22.5" height="270" fill-opacity="0.7882"/></g></mask><clipPath id="id3"><rect x="0" width="215" y="0" height="80"/></clipPath><mask id="id4"><g filter="url(#id1)"><rect x="-37.5" width="450" fill="#000000" y="-22.5" height="270" fill-opacity="0.6863"/></g></mask><clipPath id="id5"><path d="M 0.359375 0.078125 L 345 0.078125 L 345 142.640625 L 0.359375 142.640625 Z M 0.359375 0.078125 " clip-rule="nonzero"/></clipPath><clipPath id="id6"><rect x="0" width="346" y="0" height="143"/></clipPath><clipPath id="id7"><path d="M 151.5 161 L 223.5 161 L 223.5 177 L 151.5 177 Z M 151.5 161 " clip-rule="nonzero"/></clipPath></defs><rect x="-37.5" width="450" fill="#ffffff" y="-22.5" height="270" fill-opacity="1"/><rect x="-37.5" width="450" fill="#03738c" y="-22.5" height="270" fill-opacity="1"/><rect x="-37.5" width="450" fill="#ffffff" y="-22.5" height="270" fill-opacity="1"/><rect x="-37.5" width="450" fill="#03738c" y="-22.5" height="270" fill-opacity="1"/><g mask="url(#id2)"><g transform="matrix(1, 0, 0, 1, 77, 65)"><g clip-path="url(#id3)"><g fill="#400d01" fill-opacity="1"><g transform="translate(0.522228, 62.44288)"><g><path d="M 39.421875 -21.015625 C 39.421875 -14.222656 37.484375 -9.019531 33.609375 -5.40625 C 29.742188 -1.800781 24.164062 0 16.875 0 L 5.1875 0 L 5.1875 -41.25 L 18.140625 -41.25 C 24.867188 -41.25 30.097656 -39.46875 33.828125 -35.90625 C 37.554688 -32.351562 39.421875 -27.390625 39.421875 -21.015625 Z M 30.328125 -20.796875 C 30.328125 -29.648438 26.414062 -34.078125 18.59375 -34.078125 L 13.9375 -34.078125 L 13.9375 -7.21875 L 17.6875 -7.21875 C 26.113281 -7.21875 30.328125 -11.742188 30.328125 -20.796875 Z M 30.328125 -20.796875 "/></g></g><g transform="translate(43.295435, 62.44288)"><g><path d="M 30.4375 0 L 27.453125 -9.8125 L 12.40625 -9.8125 L 9.421875 0 L 0 0 L 14.5625 -41.421875 L 25.25 -41.421875 L 39.859375 0 Z M 25.359375 -17.15625 C 22.597656 -26.050781 21.039062 -31.082031 20.6875 -32.25 C 20.34375 -33.414062 20.097656 -34.335938 19.953125 -35.015625 C 19.328125 -32.609375 17.546875 -26.65625 14.609375 -17.15625 Z M 9.875 -49.640625 C 9.875 -50.859375 10.222656 -51.796875 10.921875 -52.453125 C 11.628906 -53.117188 12.585938 -53.453125 13.796875 -53.453125 C 15.035156 -53.453125 16.003906 -53.101562 16.703125 -52.40625 C 17.410156 -51.707031 17.765625 -50.785156 17.765625 -49.640625 C 17.765625 -48.515625 17.40625 -47.609375 16.6875 -46.921875 C 15.976562 -46.234375 15.015625 -45.890625 13.796875 -45.890625 C 12.585938 -45.890625 11.628906 -46.21875 10.921875 -46.875 C 10.222656 -47.53125 9.875 -48.453125 9.875 -49.640625 Z M 21.234375 -49.640625 C 21.234375 -50.953125 21.613281 -51.914062 22.375 -52.53125 C 23.144531 -53.144531 24.09375 -53.453125 25.21875 -53.453125 C 26.4375 -53.453125 27.40625 -53.113281 28.125 -52.4375 C 28.851562 -51.757812 29.21875 -50.828125 29.21875 -49.640625 C 29.21875 -48.492188 28.851562 -47.582031 28.125 -46.90625 C 27.394531 -46.226562 26.425781 -45.890625 25.21875 -45.890625 C 24.09375 -45.890625 23.144531 -46.191406 22.375 -46.796875 C 21.613281 -47.410156 21.234375 -48.359375 21.234375 -49.640625 Z M 21.234375 -49.640625 "/></g></g><g transform="translate(83.162546, 62.44288)"><g><path d="M 32.078125 0 L 1.375 0 L 1.375 -5.671875 L 21.15625 -34.03125 L 1.921875 -34.03125 L 1.921875 -41.25 L 31.546875 -41.25 L 31.546875 -35.609375 L 11.796875 -7.21875 L 32.078125 -7.21875 Z M 32.078125 0 "/></g></g><g transform="translate(116.624962, 62.44288)"><g><path d="M 30.4375 0 L 27.453125 -9.8125 L 12.40625 -9.8125 L 9.421875 0 L 0 0 L 14.5625 -41.421875 L 25.25 -41.421875 L 39.859375 0 Z M 25.359375 -17.15625 C 22.597656 -26.050781 21.039062 -31.082031 20.6875 -32.25 C 20.34375 -33.414062 20.097656 -34.335938 19.953125 -35.015625 C 19.328125 -32.609375 17.546875 -26.65625 14.609375 -17.15625 Z M 25.359375 -17.15625 "/></g></g><g transform="translate(156.492073, 62.44288)"><g><path d="M 5.1875 -41.25 L 18.03125 -41.25 C 23.875 -41.25 28.117188 -40.414062 30.765625 -38.75 C 33.410156 -37.082031 34.734375 -34.4375 34.734375 -30.8125 C 34.734375 -28.34375 34.15625 -26.316406 33 -24.734375 C 31.84375 -23.160156 30.300781 -22.210938 28.375 -21.890625 L 28.375 -21.609375 C 30.988281 -21.023438 32.875 -19.929688 34.03125 -18.328125 C 35.195312 -16.734375 35.78125 -14.613281 35.78125 -11.96875 C 35.78125 -8.195312 34.421875 -5.257812 31.703125 -3.15625 C 28.984375 -1.050781 25.289062 0 20.625 0 L 5.1875 0 Z M 13.9375 -24.90625 L 19.015625 -24.90625 C 21.390625 -24.90625 23.109375 -25.269531 24.171875 -26 C 25.234375 -26.738281 25.765625 -27.957031 25.765625 -29.65625 C 25.765625 -31.226562 25.179688 -32.359375 24.015625 -33.046875 C 22.859375 -33.734375 21.03125 -34.078125 18.53125 -34.078125 L 13.9375 -34.078125 Z M 13.9375 -17.96875 L 13.9375 -7.21875 L 19.640625 -7.21875 C 22.046875 -7.21875 23.820312 -7.675781 24.96875 -8.59375 C 26.113281 -9.519531 26.6875 -10.9375 26.6875 -12.84375 C 26.6875 -16.257812 24.242188 -17.96875 19.359375 -17.96875 Z M 13.9375 -17.96875 "/></g></g><g transform="translate(195.315247, 62.44288)"><g><path d="M 5.1875 0 L 5.1875 -41.25 L 13.9375 -41.25 L 13.9375 0 Z M 5.1875 0 "/></g></g></g></g></g></g><g fill="#f2f2f2" fill-opacity="1"><g transform="translate(83.56204, 127.479967)"><g><path d="M 39.421875 -21.015625 C 39.421875 -14.222656 37.484375 -9.019531 33.609375 -5.40625 C 29.742188 -1.800781 24.164062 0 16.875 0 L 5.1875 0 L 5.1875 -41.25 L 18.140625 -41.25 C 24.867188 -41.25 30.097656 -39.46875 33.828125 -35.90625 C 37.554688 -32.351562 39.421875 -27.390625 39.421875 -21.015625 Z M 30.328125 -20.796875 C 30.328125 -29.648438 26.414062 -34.078125 18.59375 -34.078125 L 13.9375 -34.078125 L 13.9375 -7.21875 L 17.6875 -7.21875 C 26.113281 -7.21875 30.328125 -11.742188 30.328125 -20.796875 Z M 30.328125 -20.796875 "/></g></g></g><g fill="#f2f2f2" fill-opacity="1"><g transform="translate(126.332521, 127.479967)"><g><path d="M 30.4375 0 L 27.453125 -9.8125 L 12.40625 -9.8125 L 9.421875 0 L 0 0 L 14.5625 -41.421875 L 25.25 -41.421875 L 39.859375 0 Z M 25.359375 -17.15625 C 22.597656 -26.050781 21.039062 -31.082031 20.6875 -32.25 C 20.34375 -33.414062 20.097656 -34.335938 19.953125 -35.015625 C 19.328125 -32.609375 17.546875 -26.65625 14.609375 -17.15625 Z M 9.875 -49.640625 C 9.875 -50.859375 10.222656 -51.796875 10.921875 -52.453125 C 11.628906 -53.117188 12.585938 -53.453125 13.796875 -53.453125 C 15.035156 -53.453125 16.003906 -53.101562 16.703125 -52.40625 C 17.410156 -51.707031 17.765625 -50.785156 17.765625 -49.640625 C 17.765625 -48.515625 17.40625 -47.609375 16.6875 -46.921875 C 15.976562 -46.234375 15.015625 -45.890625 13.796875 -45.890625 C 12.585938 -45.890625 11.628906 -46.21875 10.921875 -46.875 C 10.222656 -47.53125 9.875 -48.453125 9.875 -49.640625 Z M 21.234375 -49.640625 C 21.234375 -50.953125 21.613281 -51.914062 22.375 -52.53125 C 23.144531 -53.144531 24.09375 -53.453125 25.21875 -53.453125 C 26.4375 -53.453125 27.40625 -53.113281 28.125 -52.4375 C 28.851562 -51.757812 29.21875 -50.828125 29.21875 -49.640625 C 29.21875 -48.492188 28.851562 -47.582031 28.125 -46.90625 C 27.394531 -46.226562 26.425781 -45.890625 25.21875 -45.890625 C 24.09375 -45.890625 23.144531 -46.191406 22.375 -46.796875 C 21.613281 -47.410156 21.234375 -48.359375 21.234375 -49.640625 Z M 21.234375 -49.640625 "/></g></g></g><g fill="#f2f2f2" fill-opacity="1"><g transform="translate(166.197092, 127.479967)"><g><path d="M 32.078125 0 L 1.375 0 L 1.375 -5.671875 L 21.15625 -34.03125 L 1.921875 -34.03125 L 1.921875 -41.25 L 31.546875 -41.25 L 31.546875 -35.609375 L 11.796875 -7.21875 L 32.078125 -7.21875 Z M 32.078125 0 "/></g></g></g><g fill="#f2f2f2" fill-opacity="1"><g transform="translate(199.657381, 127.479967)"><g><path d="M 30.4375 0 L 27.453125 -9.8125 L 12.40625 -9.8125 L 9.421875 0 L 0 0 L 14.5625 -41.421875 L 25.25 -41.421875 L 39.859375 0 Z M 25.359375 -17.15625 C 22.597656 -26.050781 21.039062 -31.082031 20.6875 -32.25 C 20.34375 -33.414062 20.097656 -34.335938 19.953125 -35.015625 C 19.328125 -32.609375 17.546875 -26.65625 14.609375 -17.15625 Z M 25.359375 -17.15625 "/></g></g></g><g fill="#f2f2f2" fill-opacity="1"><g transform="translate(239.521947, 127.479967)"><g><path d="M 5.1875 -41.25 L 18.03125 -41.25 C 23.875 -41.25 28.117188 -40.414062 30.765625 -38.75 C 33.410156 -37.082031 34.734375 -34.4375 34.734375 -30.8125 C 34.734375 -28.34375 34.15625 -26.316406 33 -24.734375 C 31.84375 -23.160156 30.300781 -22.210938 28.375 -21.890625 L 28.375 -21.609375 C 30.988281 -21.023438 32.875 -19.929688 34.03125 -18.328125 C 35.195312 -16.734375 35.78125 -14.613281 35.78125 -11.96875 C 35.78125 -8.195312 34.421875 -5.257812 31.703125 -3.15625 C 28.984375 -1.050781 25.289062 0 20.625 0 L 5.1875 0 Z M 13.9375 -24.90625 L 19.015625 -24.90625 C 21.390625 -24.90625 23.109375 -25.269531 24.171875 -26 C 25.234375 -26.738281 25.765625 -27.957031 25.765625 -29.65625 C 25.765625 -31.226562 25.179688 -32.359375 24.015625 -33.046875 C 22.859375 -33.734375 21.03125 -34.078125 18.53125 -34.078125 L 13.9375 -34.078125 Z M 13.9375 -17.96875 L 13.9375 -7.21875 L 19.640625 -7.21875 C 22.046875 -7.21875 23.820312 -7.675781 24.96875 -8.59375 C 26.113281 -9.519531 26.6875 -10.9375 26.6875 -12.84375 C 26.6875 -16.257812 24.242188 -17.96875 19.359375 -17.96875 Z M 13.9375 -17.96875 "/></g></g></g><g fill="#f2f2f2" fill-opacity="1"><g transform="translate(278.342647, 127.479967)"><g><path d="M 5.1875 0 L 5.1875 -41.25 L 13.9375 -41.25 L 13.9375 0 Z M 5.1875 0 "/></g></g></g><g mask="url(#id4)"><g transform="matrix(1, 0, 0, 1, 15, 34)"><g clip-path="url(#id6)"><g clip-path="url(#id5)"><path fill="#f2f2f2" d="M 0.480469 0.3125 L 0.480469 142.0625 L 344.71875 142.0625 L 344.71875 0.3125 L 0.480469 0.3125 M 338.019531 135.375 L 7.039062 135.375 L 7.039062 6.863281 L 338.019531 6.863281 L 338.019531 135.375 " fill-opacity="1" fill-rule="nonzero"/></g></g></g></g><path fill="#03738c" d="M 142.976562 150.972656 L 232.226562 150.972656 L 232.226562 190.71875 L 142.976562 190.71875 L 142.976562 150.972656 " fill-opacity="1" fill-rule="nonzero"/><g clip-path="url(#id7)"><path fill="#d1e9ea" d="M 151.5 169.375 C 151.5 169.375 163.425781 157.113281 182.550781 163.75 C 201.675781 170.386719 213.261719 172.414062 223.5 165.550781 C 223.5 165.550781 213.148438 181.863281 190.539062 174.101562 C 167.925781 166.335938 165.113281 165.101562 151.5 169.375 Z M 151.5 169.375 " fill-opacity="1" fill-rule="nonzero"/></g><path fill="#d1e9ea" d="M 156.789062 171.738281 C 156.789062 171.738281 163.3125 168.023438 178.949219 173.648438 C 194.585938 179.273438 198.863281 181.300781 208.085938 178.9375 C 208.085938 178.9375 201.335938 186.023438 187.386719 181.414062 C 173.4375 176.800781 172.199219 171.511719 156.789062 171.738281 Z M 156.789062 171.738281 " fill-opacity="1" fill-rule="nonzero"/></svg>